<?xml version="1.0" standalone="no"?>
<!DOCTYPE svg PUBLIC "-//W3C//DTD SVG 20010904//EN"
 "http://www.w3.org/TR/2001/REC-SVG-20010904/DTD/svg10.dtd">
<svg version="1.0" xmlns="http://www.w3.org/2000/svg"
 width="1200.000000pt" height="720.000000pt" viewBox="0 0 1200.000000 720.000000"
 preserveAspectRatio="xMidYMid meet">

<g transform="translate(0.000000,720.000000) scale(0.100000,-0.100000)"
fill="#000000" stroke="none">
<path d="M2040 5290 c0 -64 3 -80 15 -80 10 0 15 11 15 35 0 32 2 35 30 35 17
0 30 5 30 10 0 6 -13 10 -30 10 -25 0 -30 4 -30 25 0 22 4 25 35 25 19 0 35 5
35 10 0 6 -22 10 -50 10 l-50 0 0 -80z"/>
<path d="M2700 5290 l0 -80 50 0 c28 0 50 5 50 10 0 6 -16 10 -35 10 -31 0
-35 3 -35 25 0 22 4 25 35 25 19 0 35 5 35 10 0 6 -16 10 -35 10 -31 0 -35 3
-35 25 0 22 4 25 35 25 19 0 35 5 35 10 0 6 -22 10 -50 10 l-50 0 0 -80z"/>
<path d="M3040 5346 c0 -19 -4 -22 -23 -19 -30 6 -57 -20 -57 -55 0 -43 15
-56 65 -58 l45 -2 0 79 c0 64 -3 79 -15 79 -9 0 -15 -9 -15 -24z m0 -56 c14
-26 -4 -63 -28 -58 -18 3 -28 39 -18 64 8 20 34 17 46 -6z"/>
<path d="M5870 5291 l0 -81 41 0 c22 0 49 5 60 10 23 13 26 58 4 66 -13 5 -13
8 1 21 13 13 13 18 1 37 -11 15 -27 22 -61 24 l-46 3 0 -80z m79 50 c21 -13 5
-41 -24 -41 -20 0 -25 5 -25 25 0 26 22 33 49 16z m9 -83 c-2 -17 -11 -24 -30
-26 -24 -3 -28 0 -28 22 0 22 4 26 31 26 26 0 30 -3 27 -22z"/>
<path d="M6270 5290 c0 -64 3 -80 15 -80 10 0 15 10 15 28 l1 27 24 -27 c22
-26 45 -37 45 -22 0 3 -10 19 -21 36 l-21 29 23 25 c29 31 5 33 -28 2 l-23
-21 0 41 c0 31 -4 42 -15 42 -12 0 -15 -16 -15 -80z"/>
<path d="M6490 5290 l0 -80 55 0 c30 0 55 5 55 10 0 6 -18 10 -40 10 -36 0
-40 3 -40 25 0 22 4 25 35 25 19 0 35 5 35 10 0 6 -16 10 -35 10 -31 0 -35 3
-35 25 0 23 4 25 40 25 22 0 40 5 40 10 0 6 -25 10 -55 10 l-55 0 0 -80z"/>
<path d="M6840 5345 c0 -22 -3 -24 -28 -19 -37 7 -54 -14 -50 -62 3 -41 25
-61 54 -50 17 6 16 8 -6 19 -29 15 -37 49 -16 66 27 22 49 5 44 -32 -6 -39 -1
-57 18 -57 11 0 14 18 14 80 0 64 -3 80 -15 80 -9 0 -15 -9 -15 -25z"/>
<path d="M9330 5290 c0 -64 3 -80 15 -80 10 0 15 11 15 35 0 33 2 35 35 35 19
0 35 5 35 10 0 6 -16 10 -35 10 -31 0 -35 3 -35 25 0 22 4 25 35 25 19 0 35 5
35 10 0 6 -22 10 -50 10 l-50 0 0 -80z"/>
<path d="M9590 5290 c0 -47 4 -80 10 -80 6 0 10 33 10 80 0 47 -4 80 -10 80
-6 0 -10 -33 -10 -80z"/>
<path d="M9640 5290 c0 -64 3 -80 15 -80 12 0 15 16 15 80 0 64 -3 80 -15 80
-12 0 -15 -16 -15 -80z"/>
<path d="M9772 5358 c-7 -7 -12 -23 -12 -36 0 -18 9 -27 40 -39 27 -11 40 -22
38 -32 -4 -22 -32 -25 -51 -6 -17 17 -37 20 -37 6 0 -20 33 -41 64 -41 38 0
56 15 56 47 0 19 -10 28 -47 44 -43 18 -45 21 -30 36 14 15 20 15 42 3 30 -16
42 -8 20 14 -19 19 -66 21 -83 4z"/>
<path d="M10240 5290 c0 -47 4 -80 10 -80 6 0 10 8 10 18 0 31 11 33 32 7 11
-14 26 -25 34 -25 12 0 11 6 -5 29 -25 35 -26 45 -6 61 8 7 15 16 15 21 0 17
-21 9 -45 -18 l-24 -28 -1 48 c0 26 -4 47 -10 47 -6 0 -10 -33 -10 -80z"/>
<path d="M2518 5343 c-9 -35 7 -116 24 -127 9 -5 21 -6 25 -2 4 5 2 11 -4 13
-8 3 -13 21 -13 43 0 21 6 41 13 44 10 5 10 7 0 12 -7 3 -13 12 -13 20 0 20
-27 17 -32 -3z"/>
<path d="M9910 5346 c0 -8 -6 -16 -12 -19 -10 -3 -10 -7 -1 -18 6 -8 13 -32
15 -54 2 -33 7 -41 26 -43 25 -4 30 13 7 22 -9 3 -15 19 -15 41 0 24 4 35 15
35 8 0 15 5 15 10 0 6 -7 10 -15 10 -8 0 -15 7 -15 15 0 8 -4 15 -10 15 -5 0
-10 -6 -10 -14z"/>
<path d="M2160 5269 c0 -46 3 -59 15 -59 11 0 15 11 15 40 0 29 5 43 20 52 29
18 25 26 -15 26 l-35 0 0 -59z"/>
<path d="M2256 5308 c-9 -12 -16 -29 -16 -38 0 -9 7 -26 16 -38 18 -25 65 -30
83 -8 16 20 17 72 1 91 -19 23 -66 19 -84 -7z m64 -13 c7 -9 10 -25 6 -41 -9
-33 -49 -31 -54 4 -7 48 21 69 48 37z"/>
<path d="M2380 5269 c0 -45 3 -59 14 -59 11 0 16 14 18 48 3 39 6 47 23 47 17
0 20 -8 23 -47 2 -27 8 -48 13 -48 6 0 9 24 7 58 l-3 57 -47 2 -48 2 0 -60z"/>
<path d="M2830 5269 c0 -46 3 -59 15 -59 11 0 15 12 15 45 0 33 5 47 16 52 21
8 34 -14 34 -59 0 -21 5 -38 10 -38 7 0 10 22 8 58 l-3 57 -47 2 -48 2 0 -60z"/>
<path d="M6030 5315 c-11 -13 -9 -15 18 -13 40 4 41 -15 2 -25 -63 -16 -46
-67 21 -64 l39 1 0 52 c0 38 -4 53 -16 58 -27 10 -51 7 -64 -9z m54 -70 c-4
-8 -15 -15 -25 -15 -10 0 -19 7 -19 15 0 9 9 15 25 15 18 0 23 -4 19 -15z"/>
<path d="M6157 5312 c-21 -23 -22 -66 -1 -86 20 -20 58 -21 74 -1 17 20 5 32
-15 15 -23 -19 -45 -5 -45 30 0 35 22 49 45 30 20 -17 32 -5 15 15 -17 20 -53
19 -73 -3z"/>
<path d="M6630 5268 c0 -32 4 -58 10 -58 6 0 10 17 10 39 0 39 20 68 40 56 5
-3 10 -26 10 -51 0 -32 4 -44 15 -44 11 0 15 12 15 49 0 57 -12 70 -62 68
l-38 -1 0 -58z"/>
<path d="M9450 5289 c0 -68 34 -101 68 -67 9 9 12 9 12 0 0 -7 7 -12 15 -12
13 0 15 11 13 57 -4 67 -28 89 -28 25 0 -40 -20 -69 -40 -57 -5 3 -10 26 -10
51 0 32 -4 44 -15 44 -11 0 -15 -11 -15 -41z"/>
<path d="M9989 5314 c-11 -14 -9 -15 24 -9 30 6 37 4 37 -9 0 -10 -9 -16 -22
-16 -34 0 -50 -15 -46 -41 3 -21 9 -24 51 -26 l47 -2 0 48 c0 26 -5 52 -12 59
-17 17 -63 15 -79 -4z m58 -69 c-7 -17 -47 -21 -47 -5 0 11 41 31 49 24 2 -2
1 -10 -2 -19z"/>
<path d="M10116 5308 c-9 -12 -16 -29 -16 -38 0 -9 7 -26 16 -38 18 -26 65
-30 84 -7 19 22 4 31 -26 15 -22 -12 -27 -12 -34 0 -6 8 -10 22 -10 30 0 8 4
22 10 30 7 12 12 12 34 0 30 -16 45 -7 26 15 -19 23 -66 19 -84 -7z"/>
<path d="M2600 5280 c0 -5 16 -10 36 -10 21 0 33 4 29 10 -3 6 -19 10 -36 10
-16 0 -29 -4 -29 -10z"/>
<path d="M6390 5280 c0 -5 16 -10 35 -10 19 0 35 5 35 10 0 6 -16 10 -35 10
-19 0 -35 -4 -35 -10z"/>
<path d="M6255 4550 c-12 -4 -27 -15 -34 -24 -7 -9 -20 -16 -28 -16 -29 0 -71
-30 -83 -59 -8 -20 -10 -50 -5 -85 5 -48 10 -57 36 -70 30 -15 30 -15 45 20 8
19 15 55 16 78 0 36 5 46 28 60 43 25 65 20 106 -24 21 -22 53 -46 71 -52 18
-7 33 -18 33 -25 0 -18 35 -17 50 1 6 8 10 26 8 39 -1 13 5 32 15 41 39 40 3
79 -64 70 -39 -5 -49 -2 -83 25 -39 31 -72 37 -111 21z"/>
<path d="M10326 4418 c-3 -13 -16 -135 -30 -272 -21 -203 -29 -255 -46 -284
-19 -32 -20 -36 -4 -53 13 -14 15 -28 10 -64 l-7 -45 252 0 c252 0 252 0 296
-25 23 -14 43 -28 43 -30 0 -3 -18 -105 -40 -227 -22 -123 -40 -226 -40 -229
0 -3 -17 -11 -39 -17 -21 -7 -44 -19 -51 -27 -10 -12 -46 -15 -201 -15 -137 0
-189 3 -189 12 0 6 27 112 60 235 33 124 60 229 60 234 0 10 -513 9 -530 -1
-15 -9 -99 -369 -88 -376 5 -3 10 -4 12 -3 1 2 23 83 47 179 l45 175 242 3
c133 1 242 -1 242 -4 0 -6 -94 -365 -106 -406 -5 -16 -19 -18 -102 -18 -53 -1
-124 -7 -157 -15 -46 -11 -135 -15 -381 -15 l-321 0 -6 83 c-4 45 -7 116 -6
157 1 67 2 71 11 40 5 -19 13 -39 18 -44 5 -5 45 7 95 29 81 37 86 40 80 64
-5 22 -65 182 -90 244 -7 16 12 17 313 17 l321 0 5 33 c8 45 76 641 76 661 0
15 -47 16 -525 16 l-525 0 0 -27 c0 -24 -19 -72 -20 -50 0 4 -6 3 -12 -2 -7
-6 -28 -23 -47 -38 -62 -50 -74 -114 -45 -238 10 -38 21 -87 26 -107 9 -37 10
-38 55 -38 40 0 50 5 80 37 53 56 68 82 54 96 -17 17 -13 45 9 57 15 8 21 6
30 -10 17 -32 28 -23 35 30 6 46 11 52 50 76 42 24 43 26 33 55 -19 55 -56 72
-183 82 -35 3 -40 6 -40 27 l0 25 469 3 469 2 -6 -42 c-3 -24 -20 -172 -38
-330 l-33 -288 -288 0 -288 0 -29 30 -29 31 -242 0 -242 0 -30 -28 c-49 -45
-58 -79 -58 -213 l0 -120 -73 0 c-116 0 -117 -1 -117 -176 l0 -144 -160 0
-160 0 0 -30 c0 -20 5 -30 15 -30 13 0 15 -78 15 -645 l0 -645 45 0 45 0 0 45
0 45 240 0 c132 0 240 -3 240 -8 0 -4 -9 -13 -20 -20 -39 -24 -15 -77 32 -70
28 4 37 48 14 68 -29 23 -17 30 49 30 l65 0 0 -46 0 -45 38 3 37 3 3 53 c2 31
-1 52 -7 52 -16 0 -15 197 2 203 10 4 10 6 0 6 -10 1 -13 63 -13 276 l0 275
25 0 25 0 0 -380 0 -380 30 0 30 0 0 380 0 380 45 0 45 0 -7 -277 c-3 -153 -9
-279 -12 -280 -3 -2 -5 -52 -3 -112 3 -98 5 -109 23 -114 14 -4 19 -14 19 -36
0 -30 1 -31 47 -31 28 0 53 -6 64 -16 13 -12 22 -13 37 -5 21 11 66 12 267 5
143 -5 162 3 68 27 -43 11 -60 39 -25 39 21 0 24 59 39 685 6 269 5 282 -14
320 -43 84 -87 104 -250 112 -96 4 -133 10 -148 22 -18 15 -19 15 -6 -1 12
-16 11 -18 -7 -18 -23 0 -42 22 -24 28 8 2 8 8 0 21 -6 10 -8 26 -5 35 6 15
32 16 254 14 l248 -3 3 -328 2 -328 260 3 260 3 0 -317 0 -318 40 0 40 0 0
315 0 315 230 0 230 0 0 -315 0 -315 40 0 40 0 0 629 c0 346 3 636 6 645 3 9
15 16 25 16 14 0 19 7 19 30 0 29 -1 30 -51 30 -34 0 -60 6 -78 19 -15 11 -39
23 -54 26 -15 4 -27 8 -27 10 0 6 61 394 66 418 3 15 12 27 20 27 32 0 4 48
-36 63 -8 3 103 6 248 6 144 1 262 5 262 9 0 4 18 162 40 350 22 187 40 350
40 361 0 21 -2 21 -550 21 l-550 0 -4 -22z m1009 -31 c-3 -17 -18 -153 -35
-302 -17 -148 -33 -289 -36 -312 l-6 -43 -252 1 -251 0 -65 39 c-36 22 -82 47
-102 56 -21 9 -38 19 -38 23 0 4 -15 13 -34 19 -38 14 -91 76 -80 94 5 7 3 8
-5 4 -7 -5 -37 -9 -67 -9 -42 -2 -54 1 -54 13 -1 47 44 446 51 450 4 3 226 4
493 2 l487 -2 -6 -33z m-741 -597 l99 -55 -133 -3 c-73 -1 -135 -1 -137 2 -2
2 7 22 21 45 14 22 26 48 26 57 0 21 10 18 124 -46z m-253 -35 l44 -25 -54 0
c-44 0 -52 3 -47 16 3 9 6 20 6 25 0 13 3 12 51 -16z m-1223 -32 c-65 -2 -171
-2 -235 0 -65 1 -12 3 117 3 129 0 182 -2 118 -3z m230 0 c-21 -2 -55 -2 -75
0 -21 2 -4 4 37 4 41 0 58 -2 38 -4z m-215 -90 c-62 -2 -164 -2 -225 0 -62 1
-12 3 112 3 124 0 174 -2 113 -3z m214 0 c-20 -2 -52 -2 -70 0 -17 2 0 4 38 4
39 0 53 -2 32 -4z m-64 -110 c-89 -2 -237 -2 -330 0 -92 1 -19 3 162 3 182 0
257 -2 168 -3z m-50 -120 c-29 -2 -78 -2 -110 0 -32 2 -8 3 52 3 61 0 87 -1
58 -3z m10 -140 c-23 -2 -64 -2 -90 0 -26 2 -7 3 42 3 50 0 71 -1 48 -3z m-5
-100 c-26 -2 -71 -2 -100 0 -29 2 -8 3 47 3 55 0 79 -1 53 -3z m5 -90 c-29 -2
-78 -2 -110 0 -32 2 -8 3 52 3 61 0 87 -1 58 -3z m263 -470 c-3 -21 -8 -196
-11 -389 -6 -347 -5 -352 15 -357 11 -3 20 -13 20 -24 0 -27 -9 -34 -29 -22
-9 5 -29 14 -46 21 -26 10 -28 12 -9 15 20 4 22 12 27 131 4 70 10 247 13 395
4 147 11 267 16 267 4 0 6 -17 4 -37z"/>
<path d="M6258 4383 c6 -2 18 -2 25 0 6 3 1 5 -13 5 -14 0 -19 -2 -12 -5z"/>
<path d="M6380 4366 c0 -2 9 -6 20 -9 11 -3 18 -1 14 4 -5 9 -34 13 -34 5z"/>
<path d="M6388 4323 c6 -2 18 -2 25 0 6 3 1 5 -13 5 -14 0 -19 -2 -12 -5z"/>
<path d="M6260 4310 c0 -5 5 -10 10 -10 6 0 10 5 10 10 0 6 -4 10 -10 10 -5 0
-10 -4 -10 -10z"/>
<path d="M2768 4295 c-15 -9 -32 -24 -37 -34 -14 -24 -2 -148 16 -184 13 -25
12 -31 -2 -54 -14 -20 -15 -30 -6 -50 6 -13 8 -36 5 -50 -6 -24 -5 -25 22 -19
46 10 138 13 160 5 17 -7 16 -8 -5 -8 -35 -1 -161 -61 -161 -77 0 -7 -4 -16
-10 -19 -5 -3 -7 0 -5 7 7 17 -81 17 -112 0 -16 -9 -189 -12 -698 -12 l-676 0
-24 -25 -25 -24 0 -406 0 -406 -61 48 c-34 26 -71 60 -82 76 -13 16 -23 23
-27 16 -5 -7 -33 6 -79 35 -72 47 -91 54 -91 36 0 -5 -27 -23 -60 -40 -33 -16
-67 -41 -76 -55 -11 -17 -26 -101 -46 -262 -16 -131 -34 -248 -40 -260 -6 -12
-7 -30 -3 -40 4 -10 9 -48 9 -85 1 -51 7 -75 22 -95 30 -40 82 -73 115 -73 16
0 29 -3 29 -6 0 -3 -19 -67 -41 -141 -23 -73 -39 -136 -36 -139 2 -3 28 22 57
55 47 54 90 79 90 52 0 -5 17 -12 38 -16 20 -3 54 -11 75 -17 34 -10 37 -14
32 -37 -5 -26 -3 -27 131 -64 75 -21 138 -37 140 -34 3 2 -14 21 -36 41 -22
20 -40 38 -40 41 0 3 612 5 1360 5 1032 0 1365 3 1385 12 33 15 55 56 55 103
l0 35 -60 0 -60 0 0 200 0 200 -60 0 -60 0 0 -150 0 -150 -1230 0 -1230 0 0
23 c0 12 16 72 35 132 58 183 57 235 -4 271 -19 11 -27 23 -23 32 3 10 1 13
-6 8 -7 -4 -14 4 -18 21 -3 15 -8 35 -10 44 -3 9 2 22 11 29 8 7 15 24 15 39
0 20 18 45 70 96 38 38 70 74 70 80 0 6 -13 24 -30 40 l-30 29 -40 -33 -40
-32 0 334 c0 296 2 336 16 341 9 3 442 6 964 6 728 0 949 3 952 12 3 7 7 5 11
-6 4 -10 3 -15 -3 -11 -14 8 -13 -8 1 -22 8 -8 4 -15 -17 -27 -16 -8 -23 -15
-15 -16 10 0 8 -7 -9 -25 -12 -13 -27 -22 -31 -19 -5 3 -20 -7 -34 -22 -21
-22 -23 -30 -13 -42 11 -13 10 -14 -10 -3 -18 9 -22 9 -20 -1 2 -7 -3 -12 -11
-10 -10 2 -12 -4 -7 -23 6 -22 3 -24 -16 -22 -12 2 -30 -3 -41 -12 -24 -21
-41 -51 -28 -51 5 0 11 7 13 15 2 10 6 8 14 -9 10 -22 10 -23 -22 -16 -17 4
-38 4 -45 -1 -10 -6 -11 -9 -2 -9 7 0 12 -11 11 -24 -2 -18 -6 -22 -14 -15 -9
7 -14 2 -19 -20 -4 -17 -11 -33 -16 -36 -13 -9 -11 7 6 48 19 45 19 51 1 35
-8 -7 -14 -15 -14 -18 1 -23 -9 -25 -102 -22 l-100 4 0 -251 0 -251 330 0 330
0 0 245 0 245 -142 2 c-213 2 -218 2 -217 13 1 19 15 47 24 48 6 1 9 7 9 14
-1 7 1 12 5 11 28 -3 33 3 16 22 -10 11 -13 20 -7 20 7 0 12 -4 12 -9 0 -5 7
-12 16 -15 10 -4 13 -2 8 6 -5 8 -2 9 10 5 10 -4 15 -3 11 3 -3 6 3 10 14 10
23 0 41 22 23 28 -7 2 -12 8 -12 13 0 6 8 6 19 -1 14 -7 22 -7 27 2 5 7 3 8
-6 3 -9 -5 -11 -4 -6 4 5 8 12 9 20 2 8 -7 12 -4 13 10 1 11 -1 18 -5 15 -4
-2 -7 9 -8 25 -1 24 2 28 17 24 9 -3 20 -1 24 5 3 5 11 10 16 10 6 0 8 -4 5
-9 -3 -5 6 -11 20 -14 22 -4 28 1 40 30 8 18 19 31 24 28 11 -7 8 30 -2 41
-13 12 -45 -7 -57 -33 -11 -25 -14 -26 -22 -10 -11 20 -4 37 16 37 7 0 15 7
19 15 3 8 12 15 21 15 17 0 20 17 4 22 -7 2 -5 9 5 17 14 12 16 11 16 -8 0
-19 6 -21 60 -21 l60 0 0 55 0 55 -63 0 c-62 0 -64 1 -79 33 -24 50 -68 98
-105 113 -18 8 -67 14 -109 14 -62 0 -75 -3 -71 -14 3 -8 -2 -20 -11 -27 -14
-11 -15 -11 -5 0 6 7 9 19 7 25 -2 6 18 38 46 71 69 82 91 120 77 134 -6 6
-17 11 -24 11 -8 0 -23 16 -34 35 -15 24 -28 35 -44 35 -16 0 -28 9 -37 28
-12 24 -20 28 -83 34 -39 4 -88 10 -110 13 -26 3 -49 0 -67 -10z m56 -111 c9
-3 16 -12 16 -20 0 -14 12 -18 40 -14 11 1 12 -1 4 -10 -9 -9 -17 -9 -33 -1
-12 7 -21 16 -21 20 0 5 -8 12 -17 16 -15 5 -16 4 -5 -6 6 -7 12 -16 12 -19 0
-4 -6 -7 -12 -7 -7 0 -21 -4 -30 -8 -14 -6 -18 -2 -18 17 0 14 3 28 7 31 8 9
36 9 57 1z m46 -3 c0 -6 -4 -13 -10 -16 -5 -3 -10 1 -10 9 0 9 5 16 10 16 6 0
10 -4 10 -9z m78 -53 c8 -10 3 -14 -19 -15 -15 -1 -31 2 -34 6 -3 5 4 7 15 4
11 -3 20 0 20 6 0 14 5 14 18 -1z m-108 -18 c0 -5 -2 -10 -4 -10 -3 0 -8 5
-11 10 -3 6 -1 10 4 10 6 0 11 -4 11 -10z m32 -20 c2 -16 0 -31 -6 -33 -7 -3
-11 10 -12 29 -1 42 12 45 18 4z m-55 -4 c-5 -16 -34 -19 -39 -4 -4 8 3 14 19
14 14 1 22 -3 20 -10z m98 -6 c-4 -12 -2 -26 3 -33 16 -19 20 -95 5 -90 -7 3
-10 10 -6 16 4 6 -3 8 -21 3 -15 -4 -26 -2 -26 3 0 13 35 32 44 24 9 -9 7 20
-2 35 -5 7 -15 11 -23 9 -8 -2 -11 -2 -6 0 4 3 7 9 7 14 0 9 21 38 28 39 2 0
0 -9 -3 -20z m-80 -29 c-7 -22 -29 -28 -40 -11 -3 6 1 7 10 4 11 -5 18 0 22
15 3 12 8 20 10 17 3 -2 2 -14 -2 -25z m164 -21 c13 -12 32 -52 27 -58 -3 -3
-6 0 -6 7 0 7 -9 3 -21 -10 -11 -13 -17 -18 -13 -10 10 20 14 61 5 61 -8 0
-31 44 -31 58 0 3 8 -5 17 -18 9 -14 19 -27 22 -30z m-127 -32 c-7 -7 -12 -8
-12 -4 0 5 -7 3 -15 -4 -17 -14 -35 -5 -34 18 0 14 2 13 9 -3 7 -17 9 -17 9
-3 1 11 6 15 16 12 9 -4 15 -1 15 7 0 10 3 10 12 1 9 -9 9 -15 0 -24z m21 -46
c29 -8 30 -9 10 -14 -13 -3 -23 -2 -23 4 0 5 -4 6 -10 3 -5 -3 -10 -1 -10 4 0
6 -3 10 -7 10 -21 -3 -24 2 -12 18 13 15 14 15 17 0 2 -9 18 -21 35 -25z m120
-59 c-8 -20 -23 -15 -23 8 0 16 -4 19 -21 14 -19 -6 -20 -5 -8 8 12 13 16 12
35 -2 12 -9 19 -22 17 -28z m-303 -83 c0 -5 -2 -10 -4 -10 -3 0 -8 5 -11 10
-3 6 -1 10 4 10 6 0 11 -4 11 -10z m-33 -42 c-3 -8 -6 -5 -6 6 -1 11 2 17 5
13 3 -3 4 -12 1 -19z m591 -169 c-3 -8 -7 -3 -11 10 -4 17 -3 21 5 13 5 -5 8
-16 6 -23z m-78 -89 c0 -5 -5 -10 -11 -10 -5 0 -7 5 -4 10 3 6 8 10 11 10 2 0
4 -4 4 -10z m-45 -20 c3 -5 1 -10 -4 -10 -6 0 -11 5 -11 10 0 6 2 10 4 10 3 0
8 -4 11 -10z m-115 -135 c0 -8 -8 -15 -17 -14 -11 0 -13 3 -5 6 6 2 10 9 6 14
-3 5 0 9 5 9 6 0 11 -7 11 -15z m-15 -34 c3 -5 2 -12 -3 -15 -5 -3 -9 1 -9 9
0 17 3 19 12 6z m-1905 -488 l24 -17 -24 -7 c-31 -7 -40 -3 -40 22 0 23 8 24
40 2z m30 -198 c-78 -30 -80 -30 -80 -7 0 29 9 32 79 31 l66 0 -65 -24z m5
-235 c-5 -16 -10 -19 -18 -11 -7 7 -6 15 3 26 17 20 24 13 15 -15z m-245 -225
c0 -8 -4 -15 -9 -15 -13 0 -22 16 -14 24 11 11 23 6 23 -9z m211 -158 c-13
-13 -26 -3 -16 12 3 6 11 8 17 5 6 -4 6 -10 -1 -17z"/>
<path d="M2773 4161 c1 -12 6 -17 16 -13 10 4 11 7 3 10 -7 2 -10 8 -6 13 3 5
1 9 -5 9 -5 0 -9 -9 -8 -19z"/>
<path d="M6390 4300 c0 -5 5 -10 10 -10 6 0 10 5 10 10 0 6 -4 10 -10 10 -5 0
-10 -4 -10 -10z"/>
<path d="M7540 4210 c0 -5 18 -10 40 -10 22 0 40 5 40 10 0 6 -18 10 -40 10
-22 0 -40 -4 -40 -10z"/>
<path d="M6297 4189 c7 -7 15 -10 18 -7 3 3 -2 9 -12 12 -14 6 -15 5 -6 -5z"/>
<path d="M6898 4123 c34 -2 88 -2 120 0 31 2 3 3 -63 3 -66 0 -92 -1 -57 -3z"/>
<path d="M7606 4068 c-3 -18 -11 -49 -17 -70 l-10 -38 -231 0 c-127 0 -229 -3
-226 -6 3 -3 100 -5 215 -5 115 0 215 -4 223 -9 10 -6 2 -56 -44 -246 -31
-132 -56 -242 -56 -246 0 -5 9 -8 20 -8 16 0 22 11 32 60 6 33 15 60 18 60 8
0 58 -258 52 -265 -9 -9 -452 -5 -452 4 0 5 7 28 16 52 8 24 42 120 75 212
l59 169 -308 -7 c-180 -5 -310 -12 -313 -17 -4 -6 -30 34 -59 87 -29 54 -65
111 -80 129 -33 37 -110 78 -152 80 -26 1 -31 -4 -43 -39 -41 -116 -172 -113
-191 5 l-7 42 -46 -7 c-57 -8 -120 -37 -145 -64 -28 -31 -36 -26 -36 24 l0 45
-425 0 -425 0 0 -295 0 -295 180 0 180 0 0 -65 0 -65 -140 0 -140 0 0 -40 0
-40 138 0 138 0 82 -61 82 -61 0 -534 c0 -527 0 -534 20 -534 20 0 20 7 20
595 l0 595 23 0 c20 0 27 -19 92 -242 44 -153 78 -251 92 -267 l21 -26 201 -3
201 -3 0 -285 c0 -219 -3 -286 -12 -289 -7 -2 -56 -19 -108 -37 l-95 -33 117
-3 c65 -1 171 -1 235 0 l118 3 -102 35 -103 34 0 288 0 288 49 0 49 0 76 -232
c41 -128 87 -270 101 -316 l26 -83 34 7 35 6 36 -80 36 -80 96 -45 c127 -58
141 -62 148 -43 4 10 -15 44 -52 93 -49 66 -94 152 -94 182 0 5 13 11 30 14
27 6 28 8 20 34 -5 15 -45 144 -88 286 l-79 257 32 0 c49 0 85 33 85 79 0 39
-31 80 -61 82 -8 0 17 9 56 19 38 11 72 17 74 14 3 -3 9 -165 14 -362 7 -287
12 -359 23 -368 9 -8 14 -33 14 -78 l0 -66 176 0 c202 0 205 3 74 64 -59 28
-80 43 -80 57 0 13 7 19 23 19 l24 0 6 418 c3 230 2 435 -3 456 -20 89 -101
156 -191 156 -24 0 -125 -7 -225 -17 l-181 -17 -36 28 c-20 16 -37 32 -37 37
0 5 210 9 480 9 l480 0 0 -590 c0 -583 0 -590 20 -590 20 0 20 7 20 528 l0
527 86 63 c81 58 90 62 140 62 l54 0 0 45 0 45 -80 0 c-44 0 -80 3 -80 6 0 3
-16 85 -36 183 l-35 178 50 215 c28 119 51 218 51 222 0 3 -8 6 -19 6 -13 0
-20 -10 -25 -32z m-1116 -338 c0 -6 -104 -10 -292 -9 -163 1 -282 5 -268 9 38
12 560 12 560 0z m70 0 c11 -7 5 -10 -22 -10 -21 0 -38 5 -38 10 0 13 40 13
60 0z m-212 -37 c-82 -2 -214 -2 -295 0 -82 1 -15 3 147 3 162 0 229 -2 148
-3z m245 0 c-18 -2 -48 -2 -65 0 -18 2 -4 4 32 4 36 0 50 -2 33 -4z m-563 -33
c0 -6 -27 -9 -62 -9 -50 1 -57 3 -33 9 45 11 95 11 95 0z m455 0 c-4 -6 -90
-10 -226 -10 -139 0 -219 4 -219 10 0 6 82 10 226 10 147 0 223 -3 219 -10z
m114 -6 c2 -2 -19 -4 -47 -4 -29 0 -52 4 -52 10 0 9 88 3 99 -6z m-60 -124
l34 -70 -25 -68 c-26 -71 -58 -97 -58 -48 0 25 -2 26 -40 20 l-40 -7 0 82 0
81 28 -6 c15 -3 33 -7 40 -10 8 -2 12 11 12 46 0 28 4 50 8 50 4 0 23 -32 41
-70z m409 -2 c30 -30 -4 -77 -41 -57 -29 17 -15 69 18 69 6 0 16 -5 23 -12z
m-601 -151 c-2 -23 -3 -1 -3 48 0 50 1 68 3 42 2 -26 2 -67 0 -90z m20 0 c-2
-23 -3 -1 -3 48 0 50 1 68 3 42 2 -26 2 -67 0 -90z m-760 -6 c7 -24 15 -52 18
-62 6 -17 0 -19 -47 -19 l-53 0 1 58 c1 76 -1 74 36 70 29 -3 34 -8 45 -47z
m-37 -212 l0 -50 -62 47 c-35 26 -65 49 -67 51 -2 2 26 3 62 3 l67 0 0 -51z
m2065 32 c-20 -17 -124 -91 -130 -91 -3 0 -5 23 -5 50 l0 50 72 0 c41 0 68 -4
63 -9z m-619 -1108 c-10 -10 -19 5 -10 18 6 11 8 11 12 0 2 -7 1 -15 -2 -18z"/>
<path d="M7090 4080 c0 -6 87 -10 240 -10 153 0 240 4 240 10 0 6 -87 10 -240
10 -153 0 -240 -4 -240 -10z"/>
<path d="M3784 3990 c22 -10 44 -29 49 -42 8 -22 9 -22 22 -4 16 21 35 13 35
-15 0 -29 19 -23 26 9 4 15 14 37 22 50 l14 22 -103 -1 -104 -1 39 -18z"/>
<path d="M6973 3993 c97 -2 257 -2 355 0 97 1 17 2 -178 2 -195 0 -275 -1
-177 -2z"/>
<path d="M3750 3970 c0 -5 5 -10 10 -10 6 0 10 5 10 10 0 6 -4 10 -10 10 -5 0
-10 -4 -10 -10z"/>
<path d="M8935 3853 c-27 -8 -54 -19 -59 -24 -6 -5 74 -9 205 -8 201 1 212 2
179 16 -77 34 -241 42 -325 16z"/>
<path d="M6850 3790 c-10 -7 19 -10 98 -10 61 0 112 4 112 9 0 12 -192 13
-210 1z"/>
<path d="M3823 3688 c-48 -23 -47 -102 2 -114 60 -15 96 20 81 79 -4 18 -46
51 -59 46 -1 0 -12 -5 -24 -11z"/>
<path d="M4030 3688 c-30 -11 -40 -25 -40 -59 0 -63 92 -82 119 -25 12 26 12
33 0 54 -18 31 -47 42 -79 30z"/>
<path d="M3596 3668 c-9 -12 -16 -29 -16 -38 0 -9 7 -26 16 -38 23 -34 83 -27
104 11 13 24 13 30 0 55 -21 37 -81 44 -104 10z"/>
<path d="M1386 3643 c-12 -12 -6 -33 9 -33 8 0 15 6 15 14 0 17 -14 28 -24 19z"/>
<path d="M1441 3636 c-12 -14 -5 -26 16 -26 15 0 18 26 4 34 -5 3 -14 0 -20
-8z"/>
<path d="M1506 3643 c-12 -12 -6 -33 9 -33 8 0 15 6 15 14 0 17 -14 28 -24 19z"/>
<path d="M3257 3544 c-4 -4 -4 -10 -1 -15 6 -10 34 0 34 12 0 10 -24 12 -33 3z"/>
<path d="M957 3520 c-14 -11 -36 -20 -50 -20 -29 0 -38 -10 -59 -68 -16 -40
-16 -43 3 -52 10 -6 19 -18 19 -28 0 -9 9 -23 20 -29 16 -11 21 -10 30 7 6 11
14 43 17 70 5 43 9 50 36 59 16 6 31 11 33 11 1 0 24 -18 49 -40 25 -22 53
-40 61 -40 10 0 14 -12 14 -37 l1 -38 13 30 c8 17 24 39 37 50 21 17 22 20 7
23 -10 2 -15 9 -11 18 3 8 -1 14 -10 14 -8 0 -22 11 -31 25 -40 61 -130 84
-179 45z"/>
<path d="M990 3390 c0 -5 5 -10 11 -10 5 0 7 5 4 10 -3 6 -8 10 -11 10 -2 0
-4 -4 -4 -10z"/>
<path d="M3790 3360 l0 -40 60 0 60 0 0 40 0 40 -60 0 -60 0 0 -40z"/>
<path d="M1088 3373 c7 -3 16 -2 19 1 4 3 -2 6 -13 5 -11 0 -14 -3 -6 -6z"/>
<path d="M988 3353 c7 -3 16 -2 19 1 4 3 -2 6 -13 5 -11 0 -14 -3 -6 -6z"/>
<path d="M1088 3343 c7 -3 16 -2 19 1 4 3 -2 6 -13 5 -11 0 -14 -3 -6 -6z"/>
<path d="M3932 3089 c-29 -11 -26 -43 4 -47 24 -3 39 22 27 43 -6 9 -15 10
-31 4z"/>
<path d="M1504 2993 c-6 -4 -28 -41 -48 -80 l-36 -73 47 0 c56 0 91 -16 56
-26 -11 -3 -24 -13 -27 -22 -3 -10 -9 -23 -12 -29 -4 -10 8 -13 44 -13 l50 0
65 120 c36 66 64 120 63 121 -14 5 -194 8 -202 2z"/>
<path d="M3687 2992 c-12 -2 -17 -11 -15 -25 4 -27 45 -36 54 -12 8 21 -15 43
-39 37z"/>
<path d="M3800 2856 c0 -15 7 -26 19 -29 25 -6 31 0 31 30 0 18 -5 23 -25 23
-20 0 -25 -5 -25 -24z"/>
<path d="M1770 2790 c0 -6 28 -10 65 -10 37 0 65 4 65 10 0 6 -28 10 -65 10
-37 0 -65 -4 -65 -10z"/>
<path d="M5160 2410 l0 -390 178 2 177 3 3 388 2 387 -180 0 -180 0 0 -390z"/>
<path d="M2200 2732 c-5 -2 -10 -8 -10 -13 0 -5 41 -9 91 -9 65 0 90 3 87 12
-4 11 -141 19 -168 10z"/>
<path d="M2400 2725 c0 -10 11 -15 35 -15 24 0 35 5 35 15 0 10 -11 15 -35 15
-24 0 -35 -5 -35 -15z"/>
<path d="M2050 2720 c0 -5 23 -10 50 -10 28 0 50 5 50 10 0 6 -22 10 -50 10
-27 0 -50 -4 -50 -10z"/>
<path d="M1760 2660 c0 -5 16 -10 35 -10 19 0 35 5 35 10 0 6 -16 10 -35 10
-19 0 -35 -4 -35 -10z"/>
<path d="M1860 2660 c0 -6 37 -10 90 -10 53 0 90 4 90 10 0 6 -37 10 -90 10
-53 0 -90 -4 -90 -10z"/>
<path d="M2080 2660 c0 -5 23 -10 50 -10 28 0 50 5 50 10 0 6 -22 10 -50 10
-27 0 -50 -4 -50 -10z"/>
<path d="M3190 2588 c1 -30 2 -31 12 -13 13 23 28 35 46 35 9 0 12 -28 12
-109 0 -96 -2 -110 -17 -114 -10 -3 11 -5 47 -6 49 0 61 2 48 10 -15 8 -18 26
-18 114 0 80 3 105 13 105 17 0 42 -20 55 -45 10 -17 11 -15 12 18 l0 37 -105
0 -105 0 0 -32z"/>
<path d="M2050 2600 c0 -5 23 -10 50 -10 28 0 50 5 50 10 0 6 -22 10 -50 10
-27 0 -50 -4 -50 -10z"/>
<path d="M2190 2600 c0 -6 37 -10 90 -10 53 0 90 4 90 10 0 6 -37 10 -90 10
-53 0 -90 -4 -90 -10z"/>
<path d="M2400 2600 c0 -5 16 -10 35 -10 19 0 35 5 35 10 0 6 -16 10 -35 10
-19 0 -35 -4 -35 -10z"/>
<path d="M1760 2530 c0 -6 37 -10 90 -10 53 0 90 4 90 10 0 6 -37 10 -90 10
-53 0 -90 -4 -90 -10z"/>
<path d="M1990 2530 c0 -5 16 -10 35 -10 19 0 35 5 35 10 0 6 -16 10 -35 10
-19 0 -35 -4 -35 -10z"/>
<path d="M1770 2470 c0 -6 28 -10 65 -10 37 0 65 4 65 10 0 6 -28 10 -65 10
-37 0 -65 -4 -65 -10z"/>
</g>
</svg>
